<svg width="80" height="134" viewBox="0 0 80 134" fill="none" xmlns="http://www.w3.org/2000/svg">
<path d="M16.3338 70.5327L16.4123 70.218L16.1568 70.018C6.77627 62.6778 1.23528 51.3954 1.22445 39.397V39.3948C1.22445 17.9432 18.617 0.5 40 0.5C61.383 0.5 78.7756 17.9432 78.7756 39.3948V39.3981C78.7577 51.3785 73.187 62.605 63.8237 69.9415L63.5685 70.1414L63.6469 70.456L79.3601 133.5H0.639917L16.3338 70.5327ZM74.6153 39.3916V39.3908C74.6132 20.1887 59.1482 4.67597 40 4.67597C20.8513 4.67597 5.3859 20.1899 5.38474 39.3925V39.3948V39.3953C5.39521 50.636 10.8272 61.1712 19.9688 67.677C19.9688 67.6771 19.9688 67.6771 19.9688 67.6771L21.1283 68.5025L6.12403 128.703L5.96927 129.324H6.60918H73.3908H74.0307L73.876 128.703L58.8665 68.4824L60.0268 67.6564C60.0269 67.6564 60.0269 67.6564 60.0269 67.6563C69.1647 61.1558 74.5978 50.6281 74.6153 39.3916ZM15.9977 53.1364C14.69 51.2714 13.5925 49.2501 12.7297 47.1324C24.7299 52.5313 37.033 55.7649 47.6115 56.2622L47.6349 55.7627L47.6115 56.2622C52.3282 56.4837 58.557 56.1852 63.2974 55.3026C61.6912 57.1873 59.8521 58.867 57.8114 60.2699C54.9962 60.5139 50.2564 60.5669 47.4168 60.4332C37.6593 59.9741 26.5095 57.404 15.9977 53.1364Z" fill="#F5F5F5" stroke="#F5F5F5"/>
<path d="M22.4264 53.4641L20.4264 61.4342" stroke="#F5F5F5" stroke-width="4" stroke-linecap="round"/>
<path d="M31.9769 56.5264L30.9871 64.7385" stroke="#F5F5F5" stroke-width="4" stroke-linecap="round"/>
<path d="M41.8238 58.3401L41.864 66.6291" stroke="#F5F5F5" stroke-width="4" stroke-linecap="round"/>
<path d="M51.7881 58.5508L52.8575 66.7499" stroke="#F5F5F5" stroke-width="4" stroke-linecap="round"/>
</svg>
