<svg width="80" height="134" viewBox="0 0 80 134" fill="none" xmlns="http://www.w3.org/2000/svg">
<path d="M40 0C18.3394 0 0.724448 17.6684 0.724448 39.3948V39.3971C0.735342 51.5497 6.34744 62.9771 15.8487 70.4118L0 134H40H80L64.1321 70.335C73.6144 62.9052 79.2575 51.5348 79.2756 39.3989V39.3948C79.2756 17.6684 61.6606 0 40 0ZM40 5.17597C58.8706 5.17597 74.1133 20.4635 74.1153 39.3908C74.0981 50.4662 68.7428 60.8423 59.737 67.249L58.299 68.2727L73.3908 128.824H6.60918L14.1525 98.5584L21.6959 68.2928L20.2587 67.2697C11.2492 60.8578 5.89506 50.4743 5.88474 39.3948V39.3925C5.88589 20.4646 21.1288 5.17597 40 5.17597ZM44.1592 18.0267C43.5907 18.0239 43.0222 18.0259 42.4534 18.0354C33.6766 18.1748 24.9113 19.826 16.1675 22.8576C15.1182 24.3578 14.2112 25.9546 13.479 27.6333C13.1398 28.343 12.8391 29.0653 12.5713 29.7966C21.4178 26.1208 30.2052 23.942 38.9424 23.3623C31.5615 24.9352 25.9872 31.5374 25.9872 39.3951C25.9872 48.4168 33.3341 55.7857 42.3282 55.7857C51.3228 55.7857 58.6691 48.4168 58.6691 39.3951C58.6691 31.2637 52.7003 24.478 44.937 23.2174C52.0338 23.3448 59.1206 24.5447 66.2146 26.8788C65.0191 24.4587 63.4756 22.2069 61.6643 20.1909C55.8427 18.783 50.0047 18.0653 44.1592 18.0267ZM42.3279 28.1803C48.5337 28.1803 53.5085 33.1705 53.5085 39.3948C53.5085 45.6192 48.5337 50.6094 42.3279 50.6094C36.1226 50.6094 31.1472 45.6192 31.1472 39.3948C31.1472 38.1026 31.7607 35.7121 31.7607 35.7121V37C31.7607 37 32.2144 43.543 36 45.5C39.3002 47.2061 43.4133 47.0675 46.5 45C49.7556 42.8193 49.986 39.8882 49.5 36C49 32 45.5672 29.1416 40.5 28.5C40.2751 28.4715 39.9226 28.4396 39.9226 28.4396C39.9226 28.4396 41.5014 28.1803 42.3279 28.1803ZM12.8239 49.1699C13.7722 51.7875 15.0695 54.2804 16.6735 56.5443C27.2701 60.8633 37.5297 63.4685 47.3933 63.9327C50.2951 64.0692 53.1613 64.0126 55.9857 63.7564C58.4979 62.0472 60.7103 59.9291 62.5688 57.5309C57.7709 58.6195 52.7958 59.0051 47.6349 58.7627C36.8069 58.2538 25.1306 54.8537 12.8239 49.1699Z" fill="#021424"/>
</svg>
